# xmcd
#
# Track frame offsets:
#  150
#  18905
#  33729
#  48945
#  70001
#  86211
#  99544
#  117967
#  140162
#  159833
#  180219
#  197903
#  213536
#  231367
#  248697
#
# Disc length: 3592 seconds
#
# Revision: 0
# Processed by: cddbd v1.5.1PL0 Copyright (c) Steve Scherf et al.
# Submitted via: AltoMP3_Maker 3.0
#
DISCID=cc0e060f
DTITLE=Ceca - gore od ljubavi
DYEAR=1900
DGENRE=
TTITLE0=gore od ljubavi
TTITLE1=prljavo
TTITLE2=Ne gusi me
TTITLE3=trula visnja
TTITLE4=Plan B
TTITLE5=zamalo
TTITLE6=pazi sa kim spavas
TTITLE7=stereo bol
TTITLE8=necu dugo
TTITLE9=Pepeljara
TTITLE10=od tebe ne znam da se oporavim
TTITLE11=Beograd
TTITLE12=Crveno
TTITLE13=kukavica
TTITLE14=dokaz
EXTD=
EXTT0=
EXTT1=
EXTT2=
EXTT3=
EXTT4=
EXTT5=
EXTT6=
EXTT7=
EXTT8=
EXTT9=
EXTT10=
EXTT11=
EXTT12=
EXTT13=
EXTT14=
PLAYORDER=
